<svg xmlns="http://www.w3.org/2000/svg" width="160" height="160" viewBox="0 0 160 160">
  <rect width="160" height="160" fill="#f3f7f6" rx="8"></rect>
  <rect x="12" y="12" width="52" height="52" fill="none" stroke="#1d3557" stroke-width="4" rx="4"></rect>
  <rect x="20" y="20" width="36" height="36" fill="#1d3557" rx="2"></rect>
  <rect x="28" y="28" width="20" height="20" fill="#f3f7f6" rx="1"></rect>
  <rect x="96" y="12" width="52" height="52" fill="none" stroke="#1d3557" stroke-width="4" rx="4"></rect>
  <rect x="104" y="20" width="36" height="36" fill="#1d3557" rx="2"></rect>
  <rect x="112" y="28" width="20" height="20" fill="#f3f7f6" rx="1"></rect>
  <rect x="12" y="96" width="52" height="52" fill="none" stroke="#1d3557" stroke-width="4" rx="4"></rect>
  <rect x="20" y="104" width="36" height="36" fill="#1d3557" rx="2"></rect>
  <rect x="28" y="112" width="20" height="20" fill="#f3f7f6" rx="1"></rect>
  <rect x="70" y="12" width="8" height="8" fill="#1d3557"></rect>
  <rect x="70" y="24" width="8" height="8" fill="#1d3557"></rect>
  <rect x="70" y="36" width="8" height="8" fill="#1d3557"></rect>
  <rect x="70" y="48" width="8" height="8" fill="#1d3557"></rect>
  <rect x="12" y="70" width="8" height="8" fill="#1d3557"></rect>
  <rect x="24" y="70" width="8" height="8" fill="#1d3557"></rect>
  <rect x="36" y="70" width="8" height="8" fill="#1d3557"></rect>
  <rect x="48" y="70" width="8" height="8" fill="#1d3557"></rect>
  <rect x="96" y="70" width="8" height="8" fill="#1d3557"></rect>
  <rect x="108" y="70" width="8" height="8" fill="#1d3557"></rect>
  <rect x="120" y="70" width="8" height="8" fill="#1d3557"></rect>
  <rect x="132" y="70" width="8" height="8" fill="#1d3557"></rect>
  <rect x="70" y="96" width="8" height="8" fill="#1d3557"></rect>
  <rect x="82" y="96" width="8" height="8" fill="#1d3557"></rect>
  <rect x="70" y="108" width="8" height="8" fill="#1d3557"></rect>
  <rect x="82" y="120" width="8" height="8" fill="#1d3557"></rect>
  <rect x="70" y="132" width="8" height="8" fill="#1d3557"></rect>
  <rect x="96" y="96" width="8" height="8" fill="#1d3557"></rect>
  <rect x="120" y="108" width="8" height="8" fill="#1d3557"></rect>
  <rect x="132" y="120" width="8" height="8" fill="#1d3557"></rect>
  <rect x="96" y="132" width="8" height="8" fill="#1d3557"></rect>
  <rect x="108" y="132" width="8" height="8" fill="#1d3557"></rect>
  <text x="80" y="154" font-family="sans-serif" font-size="7" fill="#5a6b7a" text-anchor="middle">Replace with your UPI QR</text>
</svg>